<?xml version="1.0" encoding="UTF-8"?>
<svg id="Capa_2" data-name="Capa 2" xmlns="http://www.w3.org/2000/svg" viewBox="0 0 280.88 187.17">
  <defs>
    <style>
      .cls-1 {
        fill: #e9fcff;
      }

      .cls-2 {
        fill: #f42727;
      }
    </style>
  </defs>
  <g id="OBJECTS">
    <g>
      <path class="cls-2" d="M137.5,76.45L32.76,3.73C26.36-.71,18.1-1.22,11.19,2.39,4.29,6,0,13.08,0,20.88V166.3c0,7.79,4.29,14.88,11.19,18.49,3.05,1.6,6.37,2.39,9.68,2.39,4.17,0,8.32-1.26,11.89-3.74l104.73-72.71c5.62-3.9,8.97-10.3,8.97-17.14,0-6.84-3.35-13.24-8.97-17.14Z"/>
      <g>
        <path class="cls-1" d="M52.61,97.15h-13.29V41.34h26.72v11.26h-13.44v11.95h12.45v11.26h-12.45v21.34Z"/>
        <path class="cls-1" d="M99.46,97.15l-2.1-10.88h-12.06l-2.1,10.88h-14.39l13.59-55.82h17.52l13.78,55.82h-14.24Zm-4.16-22.3l-2.25-12.48c-.25-1.4-.49-2.76-.71-4.08-.22-1.32-.41-2.59-.57-3.8-.17-1.21-.31-2.33-.44-3.38-.1,.99-.24,2.09-.4,3.28-.17,1.2-.36,2.45-.59,3.76-.23,1.31-.47,2.67-.73,4.07l-2.37,12.64h8.06Z"/>
        <path class="cls-1" d="M157.49,41.34l-14.24,55.82h-15.46l-14.09-55.82h13.93l5.61,27.53c.25,1.22,.54,2.72,.86,4.5,.32,1.78,.6,3.55,.86,5.31s.43,3.19,.54,4.31c.15-1.12,.36-2.55,.63-4.29,.27-1.74,.56-3.5,.88-5.27,.32-1.77,.6-3.26,.86-4.49l5.69-27.6h13.94Z"/>
        <path class="cls-1" d="M191.04,80.2c0,3.46-.72,6.52-2.16,9.18-1.44,2.66-3.47,4.75-6.09,6.26-2.62,1.51-5.71,2.27-9.28,2.27-1.6,0-3.16-.11-4.68-.32-1.51-.22-3.02-.58-4.52-1.09-1.5-.51-3.05-1.21-4.66-2.1v-13.44c2.19,1.48,4.43,2.63,6.74,3.46,2.3,.83,4.41,1.24,6.32,1.24,1.09,0,1.99-.18,2.69-.53,.7-.36,1.22-.85,1.56-1.47,.34-.62,.52-1.34,.52-2.16s-.14-1.57-.42-2.27c-.28-.7-.9-1.48-1.87-2.33-.97-.85-2.47-1.91-4.51-3.19-1.63-1.04-3.11-2.09-4.43-3.15-1.32-1.06-2.45-2.21-3.38-3.47-.93-1.26-1.64-2.72-2.14-4.37-.5-1.65-.75-3.6-.75-5.84,0-3.31,.65-6.19,1.95-8.63s3.21-4.34,5.73-5.69c2.52-1.35,5.61-2.02,9.28-2.02,2.32,0,4.64,.33,6.99,.99,2.34,.66,4.71,1.67,7.1,3.02l-3.55,11.64c-1.93-1.22-3.73-2.12-5.38-2.71-1.66-.58-3.19-.88-4.62-.88-.94,0-1.71,.16-2.31,.48-.6,.32-1.04,.74-1.32,1.28-.28,.53-.42,1.15-.42,1.83,0,.99,.17,1.85,.5,2.56,.33,.71,1.01,1.47,2.04,2.27s2.6,1.85,4.71,3.15c2.24,1.37,4.13,2.83,5.67,4.35,1.54,1.53,2.7,3.23,3.49,5.12,.79,1.88,1.18,4.07,1.18,6.57Z"/>
        <path class="cls-1" d="M61.05,159.47l-9.62-37.53h-.31c.13,1.68,.24,3.3,.33,4.87,.09,1.57,.16,3.05,.21,4.45,.05,1.4,.08,2.72,.08,3.97v24.24h-12.41v-55.82h18.21l8.67,33.52h.23l8.7-33.52h18.06v55.82h-12.75v-24.47c0-1.4,.02-2.79,.08-4.18,.05-1.39,.11-2.82,.19-4.29,.08-1.48,.17-3,.27-4.58h-.31l-9.77,37.53h-9.85Z"/>
        <path class="cls-1" d="M143.32,131.49c0,4.68-.45,8.81-1.36,12.39-.9,3.58-2.25,6.58-4.05,9.01-1.79,2.43-4.01,4.26-6.64,5.5-2.63,1.23-5.68,1.85-9.14,1.85s-6.48-.62-9.12-1.87c-2.65-1.25-4.87-3.09-6.68-5.52-1.81-2.43-3.17-5.44-4.08-9.03s-1.37-7.72-1.37-12.41c0-6.21,.81-11.44,2.42-15.69s4.01-7.47,7.18-9.66c3.17-2.19,7.06-3.28,11.66-3.28s8.52,1.08,11.66,3.25c3.14,2.16,5.52,5.38,7.12,9.64,1.6,4.26,2.41,9.54,2.41,15.82Zm-28.63,0c0,3.79,.28,6.96,.84,9.51,.56,2.55,1.39,4.45,2.5,5.71,1.11,1.26,2.48,1.89,4.1,1.89s3.06-.61,4.14-1.83c1.08-1.22,1.88-3.1,2.4-5.63,.52-2.53,.78-5.75,.78-9.64,0-5.9-.61-10.26-1.81-13.08-1.21-2.81-3.05-4.22-5.52-4.22-1.63,0-3,.64-4.1,1.93-1.11,1.29-1.94,3.21-2.5,5.76-.56,2.56-.84,5.76-.84,9.6Z"/>
        <path class="cls-1" d="M190.17,103.66l-14.24,55.82h-15.46l-14.09-55.82h13.93l5.61,27.53c.25,1.22,.54,2.72,.86,4.5,.32,1.78,.6,3.55,.86,5.31s.43,3.19,.54,4.31c.15-1.12,.36-2.55,.63-4.29,.27-1.74,.56-3.5,.88-5.27,.32-1.77,.6-3.26,.86-4.49l5.69-27.6h13.94Z"/>
        <path class="cls-1" d="M194.79,159.47v-55.82h13.29v55.82h-13.29Z"/>
        <path class="cls-1" d="M244.19,159.47h-26.88v-55.82h26.88v11.26h-13.59v10.08h12.6v11.26h-12.6v11.8h13.59v11.42Z"/>
        <path class="cls-1" d="M280.88,142.52c0,3.46-.72,6.52-2.16,9.18-1.44,2.66-3.47,4.75-6.09,6.26-2.62,1.51-5.71,2.27-9.28,2.27-1.6,0-3.16-.11-4.68-.32-1.51-.22-3.02-.58-4.52-1.09-1.5-.51-3.05-1.21-4.66-2.1v-13.44c2.19,1.48,4.43,2.63,6.74,3.46,2.3,.83,4.41,1.24,6.32,1.24,1.09,0,1.99-.18,2.69-.53,.7-.36,1.22-.85,1.56-1.47,.34-.62,.52-1.34,.52-2.16s-.14-1.57-.42-2.27c-.28-.7-.9-1.48-1.87-2.33-.97-.85-2.47-1.91-4.51-3.19-1.63-1.04-3.11-2.09-4.43-3.15-1.32-1.06-2.45-2.21-3.38-3.47-.93-1.26-1.64-2.72-2.14-4.37-.5-1.65-.75-3.6-.75-5.84,0-3.31,.65-6.19,1.95-8.63s3.21-4.34,5.73-5.69c2.52-1.35,5.61-2.02,9.28-2.02,2.32,0,4.64,.33,6.99,.99,2.34,.66,4.71,1.67,7.1,3.02l-3.55,11.64c-1.93-1.22-3.73-2.12-5.38-2.71-1.66-.58-3.19-.88-4.62-.88-.94,0-1.71,.16-2.31,.48-.6,.32-1.04,.74-1.32,1.28-.28,.53-.42,1.15-.42,1.83,0,.99,.17,1.85,.5,2.56,.33,.71,1.01,1.47,2.04,2.27s2.6,1.85,4.71,3.15c2.24,1.37,4.13,2.83,5.67,4.35,1.54,1.53,2.7,3.23,3.49,5.12,.79,1.88,1.18,4.07,1.18,6.57Z"/>
      </g>
    </g>
  </g>
</svg>